<?xml version="1.0" encoding="UTF-8"?>
<svg width="13px" height="24px" viewBox="0 0 13 24" version="1.1" xmlns="http://www.w3.org/2000/svg" xmlns:xlink="http://www.w3.org/1999/xlink">
    <!-- Generator: Sketch 52.3 (67297) - http://www.bohemiancoding.com/sketch -->
    <title>select-image</title>
    <desc>Created with Sketch.</desc>
    <g id="Symbols" stroke="none" stroke-width="1" fill="none" fill-rule="evenodd">
        <g id="Select-Dropdown" transform="translate(-354.000000, -11.000000)" fill="#474a56">
            <g id="select-image" transform="translate(354.000000, 8.000000)">
                <path d="M12.1405961,20.2070498 L12.1132524,20.2070498 C12.186169,20.2617372 12.2226271,20.3346538 12.2226271,20.4257993 C12.2226271,20.5169448 12.186169,20.5989758 12.1132524,20.6718925 L6.34373488,26.44141 C6.28904751,26.4960973 6.21613087,26.523441 6.1249854,26.523441 C6.03383992,26.523441 5.95180887,26.4960973 5.87889223,26.44141 L0.109374739,20.6718925 C0.0546873696,20.5989758 0.0273436848,20.5169448 0.0273436848,20.4257993 C0.0273436848,20.3346538 0.0546873696,20.2617372 0.109374739,20.2070498 L0.328124218,19.9883004 C0.382811587,19.933613 0.455728219,19.9062693 0.546873696,19.9062693 C0.638019173,19.9062693 0.720050228,19.933613 0.792966859,19.9883004 L6.1249854,25.3476626 L11.4570039,19.9883004 C11.5299206,19.933613 11.6119516,19.9062693 11.7030971,19.9062693 C11.7942426,19.9062693 11.8671592,19.933613 11.9218466,19.9883004 L12.1405961,20.2070498 Z" id="chevron-down"></path>
                <path d="M0.109374739,9.75781785 C0.0546873696,9.70313048 0.0273436848,9.63021384 0.0273436848,9.53906837 C0.0273436848,9.44792289 0.0546873696,9.37500626 0.109374739,9.32031889 L5.90623592,3.52345771 C5.96092329,3.46877034 6.03383992,3.44142666 6.1249854,3.44142666 C6.21613087,3.44142666 6.28904751,3.46877034 6.34373488,3.52345771 L12.1405961,9.32031889 C12.1952834,9.37500626 12.2226271,9.44792289 12.2226271,9.53906837 C12.2226271,9.63021384 12.1952834,9.70313048 12.1405961,9.75781785 L11.9218466,9.97656732 C11.8671592,10.0312547 11.7942426,10.0585984 11.7030971,10.0585984 C11.6119516,10.0585984 11.5299206,10.0312547 11.4570039,9.97656732 L6.1249854,4.6172051 L0.792966859,9.97656732 C0.720050228,10.0312547 0.638019173,10.0585984 0.546873696,10.0585984 C0.455728219,10.0585984 0.382811587,10.0312547 0.328124218,9.97656732 L0.109374739,9.75781785 Z" id="chevron-up"></path>
            </g>
        </g>
    </g>
</svg>